<svg stroke="none" fill="#2EAADC" fill-rule="evenodd" version="1.1" xmlns="http://www.w3.org/2000/svg" xmlns:xlink="http://www.w3.org/1999/xlink" width="400" height="366.30036630036625" viewBox="0, 0, 400,366.30036630036625"><g id="logo"><path d="M98.535 11.722 C 98.535 11.923,98.205 12.088,97.802 12.088 C 97.399 12.088,97.070 12.253,97.070 12.454 C 97.070 12.656,96.776 12.821,96.418 12.821 C 96.059 12.821,95.529 13.150,95.238 13.553 C 94.948 13.956,94.417 14.286,94.058 14.286 C 93.700 14.286,93.407 14.451,93.407 14.652 C 93.407 14.853,93.155 15.018,92.848 15.018 C 92.121 15.018,89.011 18.128,89.011 18.855 C 89.011 19.232,88.653 19.414,87.912 19.414 C 87.308 19.414,86.813 19.579,86.813 19.780 C 86.813 19.982,86.388 20.147,85.869 20.147 C 85.246 20.147,84.445 20.645,83.516 21.612 C 82.733 22.428,81.761 23.077,81.324 23.077 C 80.864 23.077,79.800 23.835,78.755 24.908 C 77.699 25.992,76.647 26.740,76.178 26.740 C 75.742 26.740,74.924 27.234,74.359 27.839 C 73.794 28.443,73.069 28.938,72.747 28.938 C 72.405 28.938,72.161 29.243,72.161 29.670 C 72.161 30.213,71.917 30.403,71.222 30.403 C 70.576 30.403,69.724 30.976,68.498 32.234 C 67.442 33.318,66.391 34.066,65.922 34.066 C 65.486 34.066,64.667 34.560,64.103 35.165 C 63.538 35.769,62.849 36.264,62.571 36.264 C 62.294 36.264,61.829 36.593,61.538 36.996 C 61.248 37.399,60.754 37.729,60.440 37.729 C 60.126 37.729,59.631 38.059,59.341 38.462 C 59.050 38.864,58.519 39.194,58.161 39.194 C 57.802 39.194,57.509 39.449,57.509 39.760 C 57.509 40.493,55.878 42.125,55.145 42.125 C 54.833 42.125,54.579 42.289,54.579 42.491 C 54.579 42.692,54.121 42.857,53.561 42.857 C 52.963 42.857,52.325 43.160,52.015 43.590 C 51.724 43.993,51.259 44.322,50.982 44.322 C 50.704 44.322,50.015 44.817,49.451 45.421 C 48.886 46.026,48.227 46.520,47.985 46.520 C 47.744 46.520,47.085 47.015,46.520 47.619 C 45.956 48.223,45.266 48.718,44.989 48.718 C 44.711 48.718,44.246 49.048,43.956 49.451 C 43.666 49.853,43.171 50.183,42.857 50.183 C 42.543 50.183,42.049 50.513,41.758 50.916 C 41.468 51.319,40.973 51.648,40.659 51.648 C 40.345 51.648,39.851 51.978,39.560 52.381 C 39.270 52.784,38.776 53.114,38.462 53.114 C 38.148 53.114,37.653 53.443,37.363 53.846 C 37.072 54.249,36.607 54.579,36.330 54.579 C 36.052 54.579,35.363 55.073,34.799 55.678 C 34.234 56.282,33.583 56.777,33.353 56.777 C 32.736 56.777,31.136 58.484,31.136 59.141 C 31.136 59.526,30.784 59.707,30.037 59.707 C 29.182 59.707,28.938 59.870,28.938 60.440 C 28.938 60.983,28.694 61.172,27.993 61.172 C 27.370 61.172,26.570 61.671,25.641 62.637 C 24.867 63.443,23.973 64.103,23.655 64.103 C 23.337 64.103,23.077 64.267,23.077 64.469 C 23.077 64.670,22.747 64.835,22.344 64.835 C 21.941 64.835,21.612 65.000,21.612 65.201 C 21.612 65.403,21.352 65.568,21.034 65.568 C 20.716 65.568,19.822 66.227,19.048 67.033 C 18.273 67.839,17.380 68.498,17.062 68.498 C 16.744 68.498,16.484 68.663,16.484 68.864 C 16.484 69.066,16.220 69.231,15.898 69.231 C 15.576 69.231,14.850 69.725,14.286 70.330 C 13.721 70.934,12.996 71.429,12.674 71.429 C 12.351 71.429,12.088 71.688,12.088 72.004 C 12.088 72.675,11.229 73.626,10.623 73.626 C 9.816 73.626,9.158 74.685,9.158 75.981 C 9.158 76.701,8.993 77.289,8.791 77.289 C 8.574 77.289,8.425 78.632,8.425 80.586 C 8.425 82.540,8.574 83.883,8.791 83.883 C 9.034 83.883,9.158 100.733,9.158 133.700 L 9.158 183.516 47.253 183.516 C 72.405 183.516,85.348 183.641,85.348 183.883 C 85.348 184.084,85.598 184.249,85.904 184.249 C 86.874 184.249,91.209 188.884,91.209 189.920 C 91.209 190.427,91.374 190.842,91.575 190.842 C 91.777 190.842,91.941 191.337,91.941 191.941 C 91.941 192.546,92.106 193.040,92.308 193.040 C 92.509 193.040,92.674 193.535,92.674 194.139 C 92.674 194.744,92.839 195.238,93.040 195.238 C 93.242 195.238,93.407 196.062,93.407 197.070 C 93.407 198.077,93.571 198.901,93.773 198.901 C 93.974 198.901,94.139 199.359,94.139 199.919 C 94.139 200.517,94.442 201.155,94.872 201.465 C 95.302 201.775,95.604 202.413,95.604 203.011 C 95.604 203.571,95.769 204.029,95.971 204.029 C 96.172 204.029,96.337 204.689,96.337 205.495 C 96.337 206.300,96.502 206.960,96.703 206.960 C 96.905 206.960,97.070 207.454,97.070 208.059 C 97.070 208.663,97.234 209.158,97.436 209.158 C 97.637 209.158,97.802 209.817,97.802 210.623 C 97.802 211.429,97.967 212.088,98.168 212.088 C 98.370 212.088,98.535 212.747,98.535 213.553 C 98.535 214.359,98.700 215.018,98.901 215.018 C 99.103 215.018,99.267 215.348,99.267 215.751 C 99.267 216.154,99.432 216.484,99.634 216.484 C 99.837 216.484,100.000 217.460,100.000 218.681 L 100.000 220.879 101.661 220.879 C 103.416 220.879,105.861 219.074,105.861 217.778 C 105.861 217.469,106.026 217.216,106.227 217.216 C 106.429 217.216,106.593 216.923,106.593 216.564 C 106.593 216.206,106.923 215.675,107.326 215.385 C 107.729 215.094,108.059 214.600,108.059 214.286 C 108.059 213.972,108.388 213.477,108.791 213.187 C 109.194 212.896,109.524 212.366,109.524 212.007 C 109.524 211.649,109.689 211.355,109.890 211.355 C 110.092 211.355,110.256 211.062,110.256 210.704 C 110.256 210.345,110.586 209.814,110.989 209.524 C 111.419 209.214,111.722 208.576,111.722 207.978 C 111.722 207.204,111.897 206.960,112.454 206.960 C 113.024 206.960,113.187 206.716,113.187 205.861 C 113.187 205.006,113.350 204.762,113.919 204.762 C 114.476 204.762,114.652 204.518,114.652 203.744 C 114.652 203.146,114.954 202.508,115.385 202.198 C 115.788 201.907,116.117 201.376,116.117 201.018 C 116.117 200.660,116.282 200.366,116.484 200.366 C 116.685 200.366,116.850 200.073,116.850 199.715 C 116.850 199.356,117.179 198.825,117.582 198.535 C 117.985 198.244,118.315 197.750,118.315 197.436 C 118.315 197.122,118.645 196.627,119.048 196.337 C 119.451 196.047,119.780 195.516,119.780 195.157 C 119.780 194.799,119.945 194.505,120.147 194.505 C 120.348 194.505,120.513 194.242,120.513 193.920 C 120.513 193.598,121.007 192.872,121.612 192.308 C 122.216 191.743,122.711 191.018,122.711 190.696 C 122.711 190.373,122.875 190.110,123.077 190.110 C 123.278 190.110,123.443 189.817,123.443 189.458 C 123.443 189.100,123.773 188.569,124.176 188.278 C 124.579 187.988,124.908 187.457,124.908 187.099 C 124.908 186.740,125.073 186.447,125.275 186.447 C 125.476 186.447,125.641 186.117,125.641 185.714 C 125.641 185.311,125.806 184.982,126.007 184.982 C 126.209 184.982,126.374 184.652,126.374 184.249 C 126.374 183.846,126.538 183.516,126.740 183.516 C 126.941 183.516,127.106 183.223,127.106 182.865 C 127.106 182.506,127.436 181.975,127.839 181.685 C 128.242 181.395,128.571 180.930,128.571 180.652 C 128.571 180.375,129.066 179.685,129.670 179.121 C 130.275 178.556,130.769 177.906,130.769 177.675 C 130.769 177.098,132.458 175.458,133.053 175.458 C 133.320 175.458,133.776 175.128,134.066 174.725 C 134.376 174.295,135.014 173.993,135.612 173.993 C 136.172 173.993,136.630 173.828,136.630 173.626 C 136.630 173.425,136.960 173.260,137.363 173.260 C 137.766 173.260,138.095 173.425,138.095 173.626 C 138.095 173.828,138.590 173.993,139.194 173.993 C 139.799 173.993,140.293 174.158,140.293 174.359 C 140.293 174.560,140.623 174.725,141.026 174.725 C 141.429 174.725,141.758 174.890,141.758 175.092 C 141.758 175.293,142.011 175.458,142.320 175.458 C 143.049 175.458,145.421 177.830,145.421 178.559 C 145.421 178.868,145.586 179.121,145.788 179.121 C 145.989 179.121,146.154 179.451,146.154 179.853 C 146.154 180.256,146.319 180.586,146.520 180.586 C 146.722 180.586,146.886 180.916,146.886 181.319 C 146.886 181.722,147.051 182.051,147.253 182.051 C 147.454 182.051,147.619 182.711,147.619 183.516 C 147.619 184.322,147.784 184.982,147.985 184.982 C 148.187 184.982,148.352 185.641,148.352 186.447 C 148.352 187.253,148.516 187.912,148.718 187.912 C 148.919 187.912,149.084 188.407,149.084 189.011 C 149.084 189.615,149.249 190.110,149.451 190.110 C 149.652 190.110,149.817 190.604,149.817 191.209 C 149.817 191.813,149.982 192.308,150.183 192.308 C 150.385 192.308,150.549 192.802,150.549 193.407 C 150.549 194.011,150.714 194.505,150.916 194.505 C 151.117 194.505,151.282 195.165,151.282 195.971 C 151.282 196.777,151.447 197.436,151.648 197.436 C 151.850 197.436,152.015 197.930,152.015 198.535 C 152.015 199.139,152.179 199.634,152.381 199.634 C 152.582 199.634,152.747 200.092,152.747 200.652 C 152.747 201.250,153.050 201.888,153.480 202.198 C 153.910 202.508,154.212 203.146,154.212 203.744 C 154.212 204.304,154.377 204.762,154.579 204.762 C 154.780 204.762,154.945 205.256,154.945 205.861 C 154.945 206.465,155.110 206.960,155.311 206.960 C 155.513 206.960,155.678 207.454,155.678 208.059 C 155.678 208.663,155.842 209.158,156.044 209.158 C 156.245 209.158,156.410 209.817,156.410 210.623 C 156.410 211.429,156.575 212.088,156.777 212.088 C 156.978 212.088,157.143 212.418,157.143 212.821 C 157.143 213.223,157.308 213.553,157.509 213.553 C 157.711 213.553,157.875 214.212,157.875 215.018 C 157.875 215.824,158.040 216.484,158.242 216.484 C 158.443 216.484,158.608 216.978,158.608 217.582 C 158.608 218.187,158.773 218.681,158.974 218.681 C 159.176 218.681,159.341 219.341,159.341 220.147 C 159.341 220.952,159.505 221.612,159.707 221.612 C 159.908 221.612,160.073 222.271,160.073 223.077 C 160.073 223.883,160.238 224.542,160.440 224.542 C 160.641 224.542,160.806 224.835,160.806 225.194 C 160.806 225.552,161.136 226.083,161.538 226.374 C 161.969 226.684,162.271 227.322,162.271 227.920 C 162.271 228.480,162.436 228.938,162.637 228.938 C 162.839 228.938,163.004 229.432,163.004 230.037 C 163.004 230.641,163.168 231.136,163.370 231.136 C 163.571 231.136,163.736 231.465,163.736 231.868 C 163.736 232.271,163.901 232.601,164.103 232.601 C 164.304 232.601,164.469 233.260,164.469 234.066 C 164.469 234.872,164.634 235.531,164.835 235.531 C 165.037 235.531,165.201 236.355,165.201 237.363 C 165.201 238.370,165.366 239.194,165.568 239.194 C 165.769 239.194,165.934 239.783,165.934 240.502 C 165.934 242.255,166.629 242.857,168.655 242.857 L 170.330 242.857 170.330 238.542 C 170.330 234.648,170.401 234.176,171.062 233.700 C 171.819 233.154,172.076 231.868,171.429 231.868 C 171.227 231.868,171.062 231.538,171.062 231.136 C 171.062 230.733,171.227 230.403,171.429 230.403 C 171.630 230.403,171.795 229.579,171.795 228.571 C 171.795 227.564,171.960 226.740,172.161 226.740 C 172.375 226.740,172.527 225.519,172.527 223.810 C 172.527 222.100,172.680 220.879,172.894 220.879 C 173.097 220.879,173.260 219.902,173.260 218.681 C 173.260 217.460,173.423 216.484,173.626 216.484 C 173.846 216.484,173.993 215.018,173.993 212.821 C 173.993 210.623,174.139 209.158,174.359 209.158 C 174.568 209.158,174.725 208.059,174.725 206.593 C 174.725 205.128,174.882 204.029,175.092 204.029 C 175.309 204.029,175.458 202.686,175.458 200.733 C 175.458 198.779,175.607 197.436,175.824 197.436 C 176.038 197.436,176.190 196.215,176.190 194.505 C 176.190 192.796,176.343 191.575,176.557 191.575 C 176.770 191.575,176.923 190.354,176.923 188.645 C 176.923 186.935,177.076 185.714,177.289 185.714 C 177.503 185.714,177.656 184.493,177.656 182.784 C 177.656 181.074,177.808 179.853,178.022 179.853 C 178.244 179.853,178.388 178.266,178.388 175.824 C 178.388 173.382,178.533 171.795,178.755 171.795 C 178.957 171.795,179.121 170.845,179.121 169.678 C 179.121 167.981,179.266 167.456,179.853 167.033 C 180.490 166.574,180.586 166.085,180.586 163.289 C 180.586 161.389,180.736 160.073,180.952 160.073 C 181.162 160.073,181.319 158.974,181.319 157.509 C 181.319 156.044,181.476 154.945,181.685 154.945 C 181.902 154.945,182.051 153.602,182.051 151.648 C 182.051 149.695,182.201 148.352,182.418 148.352 C 182.641 148.352,182.784 146.642,182.784 143.956 C 182.784 141.270,182.926 139.560,183.150 139.560 C 183.359 139.560,183.516 138.462,183.516 136.996 C 183.516 135.531,183.673 134.432,183.883 134.432 C 184.086 134.432,184.249 133.455,184.249 132.234 C 184.249 131.013,184.412 130.037,184.615 130.037 C 184.835 130.037,184.982 128.571,184.982 126.374 C 184.982 124.176,185.128 122.711,185.348 122.711 C 185.551 122.711,185.714 121.734,185.714 120.513 C 185.714 119.292,185.877 118.315,186.081 118.315 C 186.304 118.315,186.447 116.606,186.447 113.919 C 186.447 111.233,186.589 109.524,186.813 109.524 C 187.021 109.524,187.179 108.452,187.179 107.041 C 187.179 104.978,187.303 104.468,187.912 104.029 C 188.734 103.437,188.882 102.370,188.187 102.045 C 187.821 101.874,187.821 101.789,188.187 101.618 C 188.462 101.489,188.645 100.686,188.645 99.603 C 188.645 98.613,188.810 97.802,189.011 97.802 C 189.231 97.802,189.377 96.337,189.377 94.139 C 189.377 91.941,189.524 90.476,189.744 90.476 C 189.953 90.476,190.110 89.377,190.110 87.912 C 190.110 86.447,190.267 85.348,190.476 85.348 C 190.696 85.348,190.842 83.883,190.842 81.685 C 190.842 79.487,190.989 78.022,191.209 78.022 C 191.410 78.022,191.575 77.108,191.575 75.991 C 191.575 73.859,190.527 72.161,189.211 72.161 C 188.899 72.161,188.645 71.902,188.645 71.586 C 188.645 70.845,187.763 69.963,187.023 69.963 C 186.706 69.963,186.447 69.799,186.447 69.597 C 186.447 69.396,186.117 69.231,185.714 69.231 C 185.226 69.231,184.982 68.987,184.982 68.498 C 184.982 68.040,184.737 67.766,184.330 67.766 C 183.971 67.766,183.441 67.436,183.150 67.033 C 182.860 66.630,182.329 66.300,181.970 66.300 C 181.612 66.300,181.319 66.136,181.319 65.934 C 181.319 65.733,181.059 65.568,180.741 65.568 C 180.423 65.568,179.529 64.908,178.755 64.103 C 177.980 63.297,177.087 62.637,176.769 62.637 C 176.451 62.637,176.190 62.473,176.190 62.271 C 176.190 62.070,175.861 61.905,175.458 61.905 C 174.969 61.905,174.725 61.661,174.725 61.172 C 174.725 60.714,174.481 60.440,174.074 60.440 C 173.715 60.440,173.184 60.110,172.894 59.707 C 172.603 59.304,172.072 58.974,171.714 58.974 C 171.356 58.974,171.062 58.810,171.062 58.608 C 171.062 58.407,170.802 58.242,170.484 58.242 C 170.166 58.242,169.272 57.582,168.498 56.777 C 167.724 55.971,166.830 55.311,166.512 55.311 C 166.194 55.311,165.934 55.147,165.934 54.945 C 165.934 54.744,165.440 54.579,164.835 54.579 C 163.980 54.579,163.736 54.416,163.736 53.846 C 163.736 53.358,163.492 53.114,163.004 53.114 C 162.601 53.114,162.271 52.949,162.271 52.747 C 162.271 52.546,162.015 52.381,161.701 52.381 C 161.388 52.381,160.161 51.392,158.974 50.183 C 157.788 48.974,156.597 47.985,156.328 47.985 C 156.059 47.985,155.602 47.656,155.311 47.253 C 155.021 46.850,154.526 46.520,154.212 46.520 C 153.898 46.520,153.404 46.190,153.114 45.788 C 152.823 45.385,152.329 45.055,152.015 45.055 C 151.701 45.055,151.206 44.725,150.916 44.322 C 150.625 43.919,150.164 43.590,149.890 43.590 C 149.617 43.590,148.760 42.930,147.985 42.125 C 147.211 41.319,146.354 40.659,146.080 40.659 C 145.807 40.659,145.345 40.330,145.055 39.927 C 144.765 39.524,144.234 39.194,143.875 39.194 C 143.517 39.194,143.223 39.029,143.223 38.828 C 143.223 38.626,142.960 38.462,142.638 38.462 C 142.316 38.462,141.590 37.967,141.026 37.363 C 140.461 36.758,139.802 36.264,139.560 36.264 C 139.319 36.264,138.660 35.769,138.095 35.165 C 137.531 34.560,136.842 34.066,136.564 34.066 C 136.286 34.066,135.822 33.736,135.531 33.333 C 135.241 32.930,134.710 32.601,134.351 32.601 C 133.993 32.601,133.700 32.436,133.700 32.234 C 133.700 32.033,133.442 31.868,133.126 31.868 C 132.811 31.868,131.750 31.044,130.769 30.037 C 129.724 28.963,128.660 28.205,128.200 28.205 C 127.763 28.205,126.791 27.556,126.007 26.740 C 125.233 25.934,124.376 25.275,124.102 25.275 C 123.829 25.275,123.367 24.945,123.077 24.542 C 122.787 24.139,122.322 23.810,122.044 23.810 C 121.766 23.810,121.077 23.315,120.513 22.711 C 119.948 22.106,119.223 21.612,118.901 21.612 C 118.579 21.612,118.315 21.447,118.315 21.245 C 118.315 21.044,117.891 20.879,117.373 20.879 C 116.393 20.879,115.385 20.136,115.385 19.414 C 115.385 18.840,114.447 17.949,113.843 17.949 C 113.571 17.949,113.111 17.619,112.821 17.216 C 112.530 16.813,112.065 16.484,111.788 16.484 C 111.510 16.484,110.821 15.989,110.256 15.385 C 109.692 14.780,109.003 14.286,108.725 14.286 C 108.447 14.286,107.983 13.956,107.692 13.553 C 107.402 13.150,106.871 12.821,106.513 12.821 C 106.154 12.821,105.861 12.656,105.861 12.454 C 105.861 12.253,105.531 12.088,105.128 12.088 C 104.725 12.088,104.396 11.923,104.396 11.722 C 104.396 11.508,103.175 11.355,101.465 11.355 C 99.756 11.355,98.535 11.508,98.535 11.722 M297.070 11.722 C 297.070 11.923,296.740 12.088,296.337 12.088 C 295.934 12.088,295.604 12.253,295.604 12.454 C 295.604 12.656,295.275 12.821,294.872 12.821 C 294.469 12.821,294.139 12.985,294.139 13.187 C 294.139 13.388,293.879 13.553,293.561 13.553 C 293.243 13.553,292.349 14.212,291.575 15.018 C 290.801 15.824,289.907 16.484,289.589 16.484 C 289.271 16.484,289.011 16.648,289.011 16.850 C 289.011 17.051,288.751 17.216,288.433 17.216 C 288.115 17.216,287.221 17.875,286.447 18.681 C 285.673 19.487,284.815 20.147,284.542 20.147 C 284.268 20.147,283.807 20.476,283.516 20.879 C 283.226 21.282,282.695 21.612,282.337 21.612 C 281.978 21.612,281.685 21.777,281.685 21.978 C 281.685 22.179,281.421 22.344,281.099 22.344 C 280.777 22.344,280.052 22.839,279.487 23.443 C 278.923 24.048,278.263 24.542,278.022 24.542 C 277.781 24.542,277.121 25.037,276.557 25.641 C 275.992 26.245,275.303 26.740,275.025 26.740 C 274.748 26.740,274.283 27.070,273.993 27.473 C 273.702 27.875,273.243 28.205,272.972 28.205 C 272.701 28.205,271.677 29.029,270.696 30.037 C 269.640 31.120,268.588 31.868,268.119 31.868 C 267.684 31.868,266.865 32.363,266.300 32.967 C 265.736 33.571,265.047 34.066,264.769 34.066 C 264.491 34.066,264.027 34.396,263.736 34.799 C 263.446 35.201,262.951 35.531,262.637 35.531 C 262.323 35.531,261.829 35.861,261.538 36.264 C 261.248 36.667,260.783 36.996,260.506 36.996 C 260.228 36.996,259.539 37.491,258.974 38.095 C 258.410 38.700,257.591 39.194,257.155 39.194 C 256.686 39.194,255.634 39.942,254.579 41.026 C 253.598 42.033,252.537 42.857,252.222 42.857 C 251.906 42.857,251.648 43.022,251.648 43.223 C 251.648 43.425,251.319 43.590,250.916 43.590 C 250.513 43.590,250.183 43.755,250.183 43.956 C 250.183 44.158,249.924 44.322,249.608 44.322 C 248.867 44.322,247.985 45.204,247.985 45.945 C 247.985 46.261,247.725 46.520,247.407 46.520 C 247.089 46.520,246.196 47.179,245.421 47.985 C 244.624 48.815,243.668 49.451,243.216 49.451 C 242.777 49.451,241.957 49.945,241.392 50.549 C 240.827 51.154,240.138 51.648,239.861 51.648 C 239.583 51.648,239.118 51.978,238.828 52.381 C 238.537 52.784,238.043 53.114,237.729 53.114 C 237.415 53.114,236.920 53.443,236.630 53.846 C 236.340 54.249,235.878 54.579,235.605 54.579 C 235.331 54.579,234.474 55.238,233.700 56.044 C 232.925 56.850,232.032 57.509,231.714 57.509 C 231.396 57.509,231.136 57.674,231.136 57.875 C 231.136 58.077,230.878 58.242,230.562 58.242 C 230.247 58.242,229.186 59.066,228.205 60.073 C 227.224 61.081,226.200 61.905,225.929 61.905 C 225.658 61.905,225.199 62.234,224.908 62.637 C 224.618 63.040,224.153 63.370,223.876 63.370 C 223.598 63.370,222.909 63.864,222.344 64.469 C 221.760 65.094,220.942 65.568,220.447 65.568 C 219.968 65.568,219.338 65.897,219.048 66.300 C 218.757 66.703,218.292 67.033,218.015 67.033 C 217.737 67.033,217.048 67.527,216.484 68.132 C 215.919 68.736,215.230 69.231,214.952 69.231 C 214.675 69.231,214.210 69.560,213.919 69.963 C 213.629 70.366,213.164 70.696,212.887 70.696 C 212.609 70.696,211.920 71.190,211.355 71.795 C 210.791 72.399,210.065 72.894,209.743 72.894 C 209.237 72.894,209.158 73.536,209.158 77.656 C 209.158 80.586,209.298 82.418,209.524 82.418 C 209.727 82.418,209.890 83.394,209.890 84.615 C 209.890 85.836,210.053 86.813,210.256 86.813 C 210.466 86.813,210.623 87.912,210.623 89.377 C 210.623 90.842,210.780 91.941,210.989 91.941 C 211.198 91.941,211.355 93.040,211.355 94.505 C 211.355 95.971,211.512 97.070,211.722 97.070 C 211.923 97.070,212.088 97.857,212.088 98.820 C 212.088 100.151,212.264 100.698,212.821 101.099 C 213.445 101.549,213.553 102.047,213.553 104.476 C 213.553 106.132,213.707 107.326,213.919 107.326 C 214.123 107.326,214.286 108.303,214.286 109.524 C 214.286 110.745,214.449 111.722,214.652 111.722 C 214.856 111.722,215.018 112.698,215.018 113.919 C 215.018 115.140,215.181 116.117,215.385 116.117 C 215.594 116.117,215.751 117.216,215.751 118.681 C 215.751 120.147,215.908 121.245,216.117 121.245 C 216.319 121.245,216.484 122.070,216.484 123.077 C 216.484 124.084,216.648 124.908,216.850 124.908 C 217.067 124.908,217.216 126.252,217.216 128.205 C 217.216 130.159,217.365 131.502,217.582 131.502 C 217.792 131.502,217.949 132.601,217.949 134.066 C 217.949 135.531,218.106 136.630,218.315 136.630 C 218.519 136.630,218.681 137.607,218.681 138.828 C 218.681 140.049,218.844 141.026,219.048 141.026 C 219.261 141.026,219.414 142.247,219.414 143.956 C 219.414 145.665,219.567 146.886,219.780 146.886 C 219.982 146.886,220.147 147.509,220.147 148.271 C 220.147 149.235,220.369 149.815,220.879 150.183 C 221.504 150.633,221.612 151.131,221.612 153.561 C 221.612 155.216,221.765 156.410,221.978 156.410 C 222.182 156.410,222.344 157.387,222.344 158.608 C 222.344 159.829,222.507 160.806,222.711 160.806 C 222.920 160.806,223.077 161.905,223.077 163.370 C 223.077 164.835,223.234 165.934,223.443 165.934 C 223.647 165.934,223.810 166.911,223.810 168.132 C 223.810 169.353,223.972 170.330,224.176 170.330 C 224.385 170.330,224.542 171.429,224.542 172.894 C 224.542 174.359,224.699 175.458,224.908 175.458 C 225.112 175.458,225.275 176.435,225.275 177.656 C 225.275 178.877,225.438 179.853,225.641 179.853 C 225.858 179.853,226.007 181.197,226.007 183.150 L 226.007 186.447 227.106 186.447 C 227.711 186.447,228.205 186.612,228.205 186.813 C 228.205 187.054,236.386 187.179,252.015 187.179 C 267.643 187.179,275.824 187.305,275.824 187.546 C 275.824 187.747,276.154 187.912,276.557 187.912 C 276.960 187.912,277.289 188.077,277.289 188.278 C 277.289 188.480,277.619 188.645,278.022 188.645 C 278.425 188.645,278.755 188.810,278.755 189.011 C 278.755 189.212,279.009 189.377,279.321 189.377 C 280.053 189.377,281.685 191.009,281.685 191.742 C 281.685 192.053,281.850 192.308,282.051 192.308 C 282.253 192.308,282.418 193.054,282.418 193.966 C 282.418 195.714,279.940 198.901,278.581 198.901 C 278.274 198.901,278.022 199.066,278.022 199.267 C 278.022 199.469,277.692 199.634,277.289 199.634 C 276.886 199.634,276.557 199.799,276.557 200.000 C 276.557 200.201,275.897 200.366,275.092 200.366 C 274.286 200.366,273.626 200.531,273.626 200.733 C 273.626 200.974,264.347 201.099,246.520 201.099 C 228.694 201.099,219.414 200.974,219.414 200.733 C 219.414 200.531,218.919 200.366,218.315 200.366 C 217.711 200.366,217.216 200.201,217.216 200.000 C 217.216 199.799,216.886 199.634,216.484 199.634 C 216.081 199.634,215.751 199.469,215.751 199.267 C 215.751 199.066,215.496 198.901,215.185 198.901 C 214.493 198.901,212.821 197.286,212.821 196.618 C 212.821 196.351,212.491 195.895,212.088 195.604 C 211.685 195.314,211.355 194.783,211.355 194.425 C 211.355 194.066,211.190 193.773,210.989 193.773 C 210.780 193.773,210.623 192.674,210.623 191.209 C 210.623 189.744,210.466 188.645,210.256 188.645 C 210.047 188.645,209.890 187.546,209.890 186.081 C 209.890 184.615,209.733 183.516,209.524 183.516 C 209.322 183.516,209.158 182.857,209.158 182.051 C 209.158 181.245,208.993 180.586,208.791 180.586 C 208.578 180.586,208.425 179.365,208.425 177.656 C 208.425 175.946,208.272 174.725,208.059 174.725 C 207.855 174.725,207.692 173.748,207.692 172.527 C 207.692 171.306,207.530 170.330,207.326 170.330 C 207.123 170.330,206.960 169.353,206.960 168.132 C 206.960 166.911,206.797 165.934,206.593 165.934 C 206.384 165.934,206.227 164.835,206.227 163.370 C 206.227 161.905,206.070 160.806,205.861 160.806 C 205.651 160.806,205.495 159.707,205.495 158.242 C 205.495 156.777,205.338 155.678,205.128 155.678 C 204.915 155.678,204.762 154.484,204.762 152.828 C 204.762 150.399,204.654 149.901,204.029 149.451 C 203.411 149.005,203.297 148.502,203.297 146.230 C 203.297 143.338,202.882 142.491,201.465 142.491 C 200.543 142.491,199.634 143.296,199.634 144.113 C 199.634 144.430,199.469 144.689,199.267 144.689 C 199.044 144.689,198.901 146.398,198.901 149.084 C 198.901 151.770,198.759 153.480,198.535 153.480 C 198.318 153.480,198.168 154.823,198.168 156.777 C 198.168 158.730,198.019 160.073,197.802 160.073 C 197.589 160.073,197.436 161.294,197.436 163.004 C 197.436 164.713,197.283 165.934,197.070 165.934 C 196.850 165.934,196.703 167.372,196.703 169.516 C 196.703 172.678,196.617 173.160,195.971 173.626 C 195.384 174.050,195.238 174.575,195.238 176.271 C 195.238 177.438,195.074 178.388,194.872 178.388 C 194.655 178.388,194.505 179.731,194.505 181.685 C 194.505 183.639,194.356 184.982,194.139 184.982 C 193.922 184.982,193.773 186.325,193.773 188.278 C 193.773 190.232,193.624 191.575,193.407 191.575 C 193.193 191.575,193.040 192.796,193.040 194.505 C 193.040 196.215,192.888 197.436,192.674 197.436 C 192.457 197.436,192.308 198.779,192.308 200.733 C 192.308 202.686,192.158 204.029,191.941 204.029 C 191.722 204.029,191.575 205.495,191.575 207.692 C 191.575 209.890,191.429 211.355,191.209 211.355 C 191.007 211.355,190.842 212.179,190.842 213.187 C 190.842 214.194,190.678 215.018,190.476 215.018 C 190.259 215.018,190.110 216.361,190.110 218.315 C 190.110 220.269,189.961 221.612,189.744 221.612 C 189.522 221.612,189.377 223.199,189.377 225.641 C 189.377 228.083,189.233 229.670,189.011 229.670 C 188.803 229.670,188.645 230.742,188.645 232.154 C 188.645 234.217,188.521 234.726,187.912 235.165 C 187.155 235.710,186.898 236.996,187.546 236.996 C 188.295 236.996,187.973 241.186,187.179 241.758 C 186.571 242.197,186.447 242.706,186.447 244.770 C 186.447 246.181,186.289 247.253,186.081 247.253 C 185.871 247.253,185.714 248.352,185.714 249.817 C 185.714 251.282,185.557 252.381,185.348 252.381 C 185.126 252.381,184.982 253.968,184.982 256.410 C 184.982 258.852,184.837 260.440,184.615 260.440 C 184.412 260.440,184.249 261.416,184.249 262.637 C 184.249 263.858,184.086 264.835,183.883 264.835 C 183.661 264.835,183.516 266.422,183.516 268.864 C 183.516 271.306,183.372 272.894,183.150 272.894 C 182.933 272.894,182.784 274.237,182.784 276.190 C 182.784 278.144,182.635 279.487,182.418 279.487 C 182.214 279.487,182.051 280.464,182.051 281.685 C 182.051 282.906,181.888 283.883,181.685 283.883 C 181.481 283.883,181.319 284.860,181.319 286.081 C 181.319 287.302,181.156 288.278,180.952 288.278 C 180.751 288.278,180.586 288.533,180.586 288.844 C 180.586 289.703,178.899 291.209,177.936 291.209 C 177.468 291.209,176.847 291.538,176.557 291.941 C 176.266 292.344,175.735 292.674,175.377 292.674 C 175.019 292.674,174.725 292.839,174.725 293.040 C 174.725 293.242,174.409 293.407,174.023 293.407 C 173.637 293.407,173.225 293.613,173.107 293.864 C 172.937 294.231,172.851 294.231,172.680 293.864 C 172.563 293.613,172.150 293.407,171.764 293.407 C 171.378 293.407,171.062 293.242,171.062 293.040 C 171.062 292.839,170.733 292.674,170.330 292.674 C 169.927 292.674,169.597 292.509,169.597 292.308 C 169.597 292.106,169.345 291.941,169.038 291.941 C 168.730 291.941,167.741 291.204,166.840 290.303 C 165.939 289.401,165.201 288.412,165.201 288.105 C 165.201 287.797,165.037 287.546,164.835 287.546 C 164.634 287.546,164.469 287.051,164.469 286.447 C 164.469 285.842,164.304 285.348,164.103 285.348 C 163.901 285.348,163.736 284.689,163.736 283.883 C 163.736 283.077,163.571 282.418,163.370 282.418 C 163.168 282.418,163.004 281.923,163.004 281.319 C 163.004 280.714,162.839 280.220,162.637 280.220 C 162.436 280.220,162.271 279.762,162.271 279.202 C 162.271 278.604,161.969 277.966,161.538 277.656 C 161.108 277.346,160.806 276.707,160.806 276.110 C 160.806 275.550,160.641 275.092,160.440 275.092 C 160.238 275.092,160.073 274.597,160.073 273.993 C 160.073 273.388,159.908 272.894,159.707 272.894 C 159.505 272.894,159.341 272.399,159.341 271.795 C 159.341 271.190,159.176 270.696,158.974 270.696 C 158.773 270.696,158.608 269.872,158.608 268.864 C 158.608 267.857,158.443 267.033,158.242 267.033 C 158.040 267.033,157.875 266.703,157.875 266.300 C 157.875 265.897,157.711 265.568,157.509 265.568 C 157.308 265.568,157.143 265.073,157.143 264.469 C 157.143 263.864,156.978 263.370,156.777 263.370 C 156.575 263.370,156.410 262.875,156.410 262.271 C 156.410 261.667,156.245 261.172,156.044 261.172 C 155.842 261.172,155.678 260.513,155.678 259.707 C 155.678 258.901,155.513 258.242,155.311 258.242 C 155.110 258.242,154.945 257.747,154.945 257.143 C 154.945 256.538,154.780 256.044,154.579 256.044 C 154.377 256.044,154.212 255.586,154.212 255.026 C 154.212 254.428,153.910 253.790,153.480 253.480 C 152.970 253.112,152.747 252.532,152.747 251.567 C 152.747 250.806,152.582 250.183,152.381 250.183 C 152.179 250.183,152.015 249.689,152.015 249.084 C 152.015 248.480,151.850 247.985,151.648 247.985 C 151.447 247.985,151.282 247.656,151.282 247.253 C 151.282 246.850,151.117 246.520,150.916 246.520 C 150.714 246.520,150.549 246.026,150.549 245.421 C 150.549 244.817,150.385 244.322,150.183 244.322 C 149.982 244.322,149.817 243.663,149.817 242.857 C 149.817 242.051,149.652 241.392,149.451 241.392 C 149.249 241.392,149.084 240.897,149.084 240.293 C 149.084 239.689,148.919 239.194,148.718 239.194 C 148.516 239.194,148.352 238.535,148.352 237.729 C 148.352 236.923,148.187 236.264,147.985 236.264 C 147.784 236.264,147.619 235.604,147.619 234.799 C 147.619 233.993,147.454 233.333,147.253 233.333 C 147.051 233.333,146.886 232.839,146.886 232.234 C 146.886 231.630,146.722 231.136,146.520 231.136 C 146.319 231.136,146.154 230.641,146.154 230.037 C 146.154 229.432,145.989 228.938,145.788 228.938 C 145.586 228.938,145.421 228.480,145.421 227.920 C 145.421 227.322,145.119 226.684,144.689 226.374 C 144.258 226.064,143.956 225.425,143.956 224.828 C 143.956 224.268,143.791 223.810,143.590 223.810 C 143.388 223.810,143.223 223.315,143.223 222.711 C 143.223 222.106,143.059 221.612,142.857 221.612 C 142.656 221.612,142.491 221.282,142.491 220.879 C 142.491 220.476,142.326 220.147,142.125 220.147 C 141.923 220.147,141.758 219.322,141.758 218.315 C 141.758 217.308,141.593 216.484,141.392 216.484 C 141.190 216.484,141.026 215.989,141.026 215.385 C 141.026 214.780,140.861 214.286,140.659 214.286 C 140.458 214.286,140.293 213.791,140.293 213.187 C 140.293 212.582,140.128 212.088,139.927 212.088 C 139.725 212.088,139.560 211.758,139.560 211.355 C 139.560 210.952,139.396 210.623,139.194 210.623 C 138.993 210.623,138.828 209.963,138.828 209.158 C 138.828 208.352,138.663 207.692,138.462 207.692 C 138.260 207.692,138.095 207.033,138.095 206.227 C 138.095 205.421,137.930 204.762,137.729 204.762 C 137.527 204.762,137.363 204.267,137.363 203.663 C 137.363 202.573,137.345 202.564,135.322 202.564 C 133.221 202.564,132.234 203.083,132.234 204.186 C 132.234 204.503,132.070 204.762,131.868 204.762 C 131.667 204.762,131.502 205.092,131.502 205.495 C 131.502 205.897,131.337 206.227,131.136 206.227 C 130.934 206.227,130.769 206.520,130.769 206.879 C 130.769 207.237,130.440 207.768,130.037 208.059 C 129.634 208.349,129.304 208.814,129.304 209.091 C 129.304 209.369,128.810 210.058,128.205 210.623 C 127.601 211.187,127.106 211.876,127.106 212.154 C 127.106 212.432,126.777 212.896,126.374 213.187 C 125.971 213.477,125.641 214.008,125.641 214.367 C 125.641 214.725,125.476 215.018,125.275 215.018 C 125.073 215.018,124.908 215.312,124.908 215.670 C 124.908 216.029,124.579 216.559,124.176 216.850 C 123.773 217.140,123.443 217.635,123.443 217.949 C 123.443 218.263,123.114 218.757,122.711 219.048 C 122.280 219.358,121.978 219.996,121.978 220.594 C 121.978 221.154,121.813 221.612,121.612 221.612 C 121.410 221.612,121.245 221.871,121.245 222.187 C 121.245 222.928,120.364 223.810,119.623 223.810 C 119.292 223.810,119.048 224.120,119.048 224.542 C 119.048 224.945,118.883 225.275,118.681 225.275 C 118.480 225.275,118.315 225.733,118.315 226.293 C 118.315 226.891,118.013 227.529,117.582 227.839 C 117.179 228.129,116.850 228.624,116.850 228.938 C 116.850 229.252,116.520 229.746,116.117 230.037 C 115.714 230.327,115.385 230.822,115.385 231.136 C 115.385 231.450,115.055 231.944,114.652 232.234 C 114.249 232.525,113.919 233.056,113.919 233.414 C 113.919 233.773,113.755 234.066,113.553 234.066 C 113.352 234.066,113.187 234.329,113.187 234.652 C 113.187 234.974,112.692 235.699,112.088 236.264 C 111.484 236.828,110.989 237.554,110.989 237.876 C 110.989 238.198,110.824 238.462,110.623 238.462 C 110.421 238.462,110.256 238.755,110.256 239.113 C 110.256 239.472,109.927 240.003,109.524 240.293 C 109.121 240.583,108.791 241.114,108.791 241.473 C 108.791 241.831,108.626 242.125,108.425 242.125 C 108.223 242.125,108.059 242.583,108.059 243.143 C 108.059 243.740,107.756 244.379,107.326 244.689 C 106.923 244.979,106.593 245.433,106.593 245.697 C 106.593 246.322,104.198 248.718,103.573 248.718 C 103.308 248.718,102.855 249.048,102.564 249.451 C 102.107 250.085,101.616 250.183,98.901 250.183 C 96.186 250.183,95.695 250.085,95.238 249.451 C 94.948 249.048,94.494 248.718,94.229 248.718 C 93.562 248.718,91.209 246.302,91.209 245.617 C 91.209 245.308,91.044 245.055,90.842 245.055 C 90.641 245.055,90.476 244.396,90.476 243.590 C 90.476 242.784,90.311 242.125,90.110 242.125 C 89.908 242.125,89.744 241.630,89.744 241.026 C 89.744 240.421,89.579 239.927,89.377 239.927 C 89.176 239.927,89.011 239.267,89.011 238.462 C 89.011 237.656,88.846 236.996,88.645 236.996 C 88.443 236.996,88.278 236.337,88.278 235.531 C 88.278 234.725,88.114 234.066,87.912 234.066 C 87.711 234.066,87.546 233.773,87.546 233.414 C 87.546 233.056,87.216 232.525,86.813 232.234 C 86.057 231.689,85.799 230.403,86.447 230.403 C 87.094 230.403,86.837 229.117,86.081 228.571 C 85.570 228.204,85.348 227.623,85.348 226.659 C 85.348 225.898,85.183 225.275,84.982 225.275 C 84.780 225.275,84.615 224.780,84.615 224.176 C 84.615 223.571,84.451 223.077,84.249 223.077 C 84.048 223.077,83.883 222.418,83.883 221.612 C 83.883 220.806,83.718 220.147,83.516 220.147 C 83.315 220.147,83.150 219.487,83.150 218.681 C 83.150 217.875,82.985 217.216,82.784 217.216 C 82.582 217.216,82.418 216.557,82.418 215.751 C 82.418 214.945,82.253 214.286,82.051 214.286 C 81.850 214.286,81.685 213.791,81.685 213.187 C 81.685 212.582,81.520 212.088,81.319 212.088 C 81.117 212.088,80.952 211.593,80.952 210.989 C 80.952 210.385,80.788 209.890,80.586 209.890 C 80.385 209.890,80.220 209.066,80.220 208.059 C 80.220 207.051,80.055 206.227,79.853 206.227 C 79.652 206.227,79.487 205.733,79.487 205.128 C 79.487 204.524,79.322 204.029,79.121 204.029 C 78.919 204.029,78.755 203.571,78.755 203.011 C 78.755 202.413,78.452 201.775,78.022 201.465 C 77.619 201.175,77.289 200.554,77.289 200.086 C 77.289 199.617,76.885 198.830,76.390 198.335 L 75.491 197.436 43.423 197.436 C 22.289 197.436,11.355 197.561,11.355 197.802 C 11.355 198.004,10.531 198.168,9.524 198.168 L 7.692 198.168 7.692 199.553 C 7.692 200.517,7.915 201.097,8.425 201.465 C 9.237 202.050,9.575 209.158,8.791 209.158 C 8.567 209.158,8.425 210.867,8.425 213.553 C 8.425 216.239,8.567 217.949,8.791 217.949 C 8.993 217.949,9.158 218.537,9.158 219.257 C 9.158 220.642,9.825 221.612,10.780 221.612 C 11.111 221.612,11.355 221.923,11.355 222.344 C 11.355 222.767,11.600 223.077,11.933 223.077 C 12.251 223.077,13.145 223.736,13.919 224.542 C 14.694 225.348,15.587 226.007,15.905 226.007 C 16.223 226.007,16.484 226.172,16.484 226.374 C 16.484 226.575,16.777 226.740,17.135 226.740 C 17.494 226.740,18.025 227.070,18.315 227.473 C 18.605 227.875,19.100 228.205,19.414 228.205 C 19.728 228.205,20.222 228.535,20.513 228.938 C 20.803 229.341,21.298 229.670,21.612 229.670 C 21.926 229.670,22.420 230.000,22.711 230.403 C 23.001 230.806,23.466 231.136,23.743 231.136 C 24.021 231.136,24.710 231.630,25.275 232.234 C 25.839 232.839,26.565 233.333,26.887 233.333 C 27.209 233.333,27.473 233.498,27.473 233.700 C 27.473 233.901,27.730 234.066,28.046 234.066 C 28.361 234.066,29.422 234.890,30.403 235.897 C 31.384 236.905,32.445 237.729,32.760 237.729 C 33.075 237.729,33.333 237.894,33.333 238.095 C 33.333 238.297,33.627 238.462,33.985 238.462 C 34.344 238.462,34.874 238.791,35.165 239.194 C 35.455 239.597,35.916 239.927,36.188 239.927 C 36.858 239.927,37.729 240.843,37.729 241.549 C 37.729 241.944,38.073 242.125,38.828 242.125 C 39.432 242.125,39.927 242.289,39.927 242.491 C 39.927 242.692,40.185 242.857,40.500 242.857 C 40.815 242.857,41.876 243.681,42.857 244.689 C 43.838 245.696,44.863 246.520,45.133 246.520 C 45.404 246.520,45.863 246.850,46.154 247.253 C 46.444 247.656,46.939 247.985,47.253 247.985 C 47.567 247.985,48.061 248.315,48.352 248.718 C 48.642 249.121,49.173 249.451,49.531 249.451 C 49.890 249.451,50.183 249.615,50.183 249.817 C 50.183 250.018,50.443 250.183,50.761 250.183 C 51.079 250.183,51.973 250.842,52.747 251.648 C 53.522 252.454,54.379 253.114,54.652 253.114 C 54.926 253.114,55.387 253.443,55.678 253.846 C 55.968 254.249,56.429 254.579,56.703 254.579 C 56.977 254.579,57.834 255.238,58.608 256.044 C 59.382 256.850,60.276 257.509,60.594 257.509 C 60.912 257.509,61.172 257.674,61.172 257.875 C 61.172 258.077,61.465 258.242,61.824 258.242 C 62.182 258.242,62.713 258.571,63.004 258.974 C 63.294 259.377,63.825 259.707,64.183 259.707 C 64.542 259.707,64.835 259.872,64.835 260.073 C 64.835 260.275,65.093 260.440,65.408 260.440 C 65.724 260.440,66.784 261.264,67.766 262.271 C 68.747 263.278,69.771 264.103,70.042 264.103 C 70.313 264.103,70.772 264.432,71.062 264.835 C 71.353 265.238,71.814 265.568,72.088 265.568 C 72.361 265.568,73.218 266.227,73.993 267.033 C 74.767 267.839,75.661 268.498,75.979 268.498 C 76.297 268.498,76.557 268.663,76.557 268.864 C 76.557 269.066,76.820 269.231,77.142 269.231 C 77.465 269.231,78.190 269.725,78.755 270.330 C 79.319 270.934,80.008 271.429,80.286 271.429 C 80.564 271.429,81.028 271.758,81.319 272.161 C 81.686 272.671,82.267 272.894,83.231 272.894 C 84.231 272.894,84.615 273.050,84.615 273.455 C 84.615 274.378,87.051 276.557,88.083 276.557 C 88.682 276.557,89.011 276.761,89.011 277.132 C 89.011 277.873,89.893 278.755,90.633 278.755 C 90.950 278.755,91.209 278.919,91.209 279.121 C 91.209 279.322,91.472 279.487,91.794 279.487 C 92.117 279.487,92.842 279.982,93.407 280.586 C 93.971 281.190,94.697 281.685,95.019 281.685 C 95.341 281.685,95.604 281.850,95.604 282.051 C 95.604 282.253,95.898 282.418,96.256 282.418 C 96.615 282.418,97.145 282.747,97.436 283.150 C 97.726 283.553,98.188 283.883,98.461 283.883 C 98.735 283.883,99.592 284.542,100.366 285.348 C 101.141 286.154,101.965 286.813,102.198 286.813 C 102.431 286.813,103.255 287.473,104.029 288.278 C 104.804 289.084,105.697 289.744,106.015 289.744 C 106.333 289.744,106.593 289.908,106.593 290.110 C 106.593 290.311,107.016 290.476,107.533 290.476 C 108.178 290.476,109.031 291.050,110.256 292.308 C 111.482 293.566,112.335 294.139,112.980 294.139 C 113.675 294.139,113.919 294.330,113.919 294.872 C 113.919 295.299,114.164 295.604,114.505 295.604 C 114.827 295.604,115.553 296.099,116.117 296.703 C 116.748 297.379,117.510 297.802,118.096 297.802 C 118.803 297.802,119.048 297.990,119.048 298.535 C 119.048 298.958,119.292 299.267,119.626 299.267 C 119.944 299.267,120.837 299.927,121.612 300.733 C 122.386 301.538,123.280 302.198,123.598 302.198 C 123.916 302.198,124.176 302.363,124.176 302.564 C 124.176 302.766,124.469 302.930,124.828 302.930 C 125.186 302.930,125.717 303.260,126.007 303.663 C 126.298 304.066,126.829 304.396,127.187 304.396 C 127.595 304.396,127.839 304.670,127.839 305.128 C 127.839 305.617,128.083 305.861,128.571 305.861 C 128.974 305.861,129.304 306.026,129.304 306.227 C 129.304 306.429,129.597 306.593,129.956 306.593 C 130.314 306.593,130.845 306.923,131.136 307.326 C 131.426 307.729,131.885 308.059,132.156 308.059 C 132.427 308.059,133.451 308.883,134.432 309.890 C 135.658 311.148,136.510 311.722,137.156 311.722 C 137.672 311.722,138.095 311.886,138.095 312.088 C 138.095 312.289,138.389 312.454,138.747 312.454 C 139.105 312.454,139.636 312.784,139.927 313.187 C 140.217 313.590,140.677 313.919,140.950 313.919 C 141.553 313.919,142.491 314.811,142.491 315.385 C 142.491 315.990,143.442 316.850,144.113 316.850 C 144.430 316.850,144.689 317.015,144.689 317.216 C 144.689 317.418,144.949 317.582,145.267 317.582 C 145.585 317.582,146.478 318.242,147.253 319.048 C 148.027 319.853,148.921 320.513,149.239 320.513 C 149.557 320.513,149.817 320.678,149.817 320.879 C 149.817 321.081,150.080 321.245,150.402 321.245 C 150.725 321.245,151.450 321.740,152.015 322.344 C 152.579 322.949,153.305 323.443,153.627 323.443 C 153.949 323.443,154.212 323.608,154.212 323.810 C 154.212 324.011,154.506 324.176,154.864 324.176 C 155.223 324.176,155.754 324.505,156.044 324.908 C 156.334 325.311,156.865 325.641,157.224 325.641 C 157.582 325.641,157.875 325.806,157.875 326.007 C 157.875 326.209,158.205 326.374,158.608 326.374 C 159.030 326.374,159.341 326.618,159.341 326.949 C 159.341 327.690,160.223 328.571,160.963 328.571 C 161.279 328.571,161.538 328.736,161.538 328.938 C 161.538 329.139,161.799 329.304,162.117 329.304 C 162.435 329.304,163.328 329.963,164.103 330.769 C 164.877 331.575,165.771 332.234,166.088 332.234 C 166.406 332.234,166.667 332.399,166.667 332.601 C 166.667 332.802,166.960 332.967,167.318 332.967 C 167.677 332.967,168.208 333.297,168.498 333.700 C 168.789 334.103,169.319 334.432,169.678 334.432 C 170.036 334.432,170.330 334.597,170.330 334.799 C 170.330 335.000,170.588 335.165,170.903 335.165 C 171.218 335.165,172.279 335.989,173.260 336.996 C 174.241 338.004,175.236 338.828,175.470 338.828 C 175.705 338.828,176.358 339.322,176.923 339.927 C 177.488 340.531,178.147 341.026,178.388 341.026 C 178.630 341.026,179.289 341.520,179.853 342.125 C 180.418 342.729,181.239 343.223,181.678 343.223 C 182.129 343.223,183.086 343.859,183.883 344.689 C 184.657 345.495,185.485 346.154,185.722 346.154 C 185.959 346.154,186.615 346.648,187.179 347.253 C 187.744 347.857,188.470 348.352,188.792 348.352 C 189.114 348.352,189.377 348.516,189.377 348.718 C 189.377 348.919,189.671 349.084,190.029 349.084 C 190.387 349.084,190.918 349.414,191.209 349.817 C 191.499 350.220,191.961 350.549,192.234 350.549 C 192.508 350.549,193.365 351.209,194.139 352.015 C 194.913 352.821,195.807 353.480,196.125 353.480 C 196.443 353.480,196.703 353.645,196.703 353.846 C 196.703 354.066,198.168 354.212,200.366 354.212 C 202.564 354.212,204.029 354.066,204.029 353.846 C 204.029 353.645,204.323 353.480,204.681 353.480 C 205.039 353.480,205.570 353.150,205.861 352.747 C 206.151 352.344,206.616 352.015,206.894 352.015 C 207.171 352.015,207.860 351.520,208.425 350.916 C 208.989 350.311,209.644 349.817,209.880 349.817 C 210.429 349.817,211.355 348.897,211.355 348.352 C 211.355 347.629,212.363 346.886,213.344 346.886 C 213.862 346.886,214.286 346.722,214.286 346.520 C 214.286 346.319,214.545 346.154,214.861 346.154 C 215.602 346.154,216.484 345.272,216.484 344.532 C 216.484 344.200,216.794 343.956,217.216 343.956 C 217.619 343.956,217.949 343.791,217.949 343.590 C 217.949 343.388,218.407 343.223,218.967 343.223 C 219.565 343.223,220.203 342.921,220.513 342.491 C 220.803 342.088,221.263 341.758,221.536 341.758 C 222.206 341.758,223.077 340.842,223.077 340.136 C 223.077 339.751,223.414 339.560,224.095 339.560 C 224.693 339.560,225.331 339.258,225.641 338.828 C 225.931 338.425,226.462 338.095,226.821 338.095 C 227.228 338.095,227.473 337.821,227.473 337.363 C 227.473 336.874,227.717 336.630,228.205 336.630 C 228.608 336.630,228.938 336.465,228.938 336.264 C 228.938 336.062,229.231 335.897,229.589 335.897 C 229.948 335.897,230.479 335.568,230.769 335.165 C 231.060 334.762,231.520 334.432,231.792 334.432 C 232.463 334.432,233.333 333.516,233.333 332.810 C 233.333 332.479,233.644 332.234,234.066 332.234 C 234.469 332.234,234.799 332.070,234.799 331.868 C 234.799 331.667,235.128 331.502,235.531 331.502 C 235.934 331.502,236.264 331.337,236.264 331.136 C 236.264 330.934,236.527 330.769,236.849 330.769 C 237.171 330.769,237.897 330.275,238.462 329.670 C 239.026 329.066,239.715 328.571,239.993 328.571 C 240.270 328.571,240.735 328.242,241.026 327.839 C 241.316 327.436,241.775 327.106,242.046 327.106 C 242.317 327.106,243.341 326.282,244.322 325.275 C 245.462 324.105,246.417 323.443,246.965 323.443 C 247.437 323.443,248.061 323.114,248.352 322.711 C 248.642 322.308,249.107 321.978,249.384 321.978 C 249.662 321.978,250.351 321.484,250.916 320.879 C 251.480 320.275,252.140 319.780,252.381 319.780 C 252.622 319.780,253.282 319.286,253.846 318.681 C 254.411 318.077,255.136 317.582,255.458 317.582 C 255.780 317.582,256.044 317.418,256.044 317.216 C 256.044 317.015,256.304 316.850,256.622 316.850 C 256.940 316.850,257.834 316.190,258.608 315.385 C 259.382 314.579,260.276 313.919,260.594 313.919 C 260.912 313.919,261.172 313.755,261.172 313.553 C 261.172 313.352,261.436 313.187,261.758 313.187 C 262.080 313.187,262.805 312.692,263.370 312.088 C 263.935 311.484,264.624 310.989,264.901 310.989 C 265.179 310.989,265.644 310.659,265.934 310.256 C 266.224 309.853,266.686 309.524,266.959 309.524 C 267.233 309.524,268.090 308.864,268.864 308.059 C 269.639 307.253,270.532 306.593,270.850 306.593 C 271.168 306.593,271.429 306.429,271.429 306.227 C 271.429 306.026,271.722 305.861,272.080 305.861 C 272.439 305.861,272.970 305.531,273.260 305.128 C 273.550 304.725,274.011 304.396,274.283 304.396 C 274.954 304.396,275.824 303.479,275.824 302.773 C 275.824 302.442,276.135 302.198,276.557 302.198 C 276.960 302.198,277.289 302.033,277.289 301.832 C 277.289 301.630,277.619 301.465,278.022 301.465 C 278.425 301.465,278.755 301.300,278.755 301.099 C 278.755 300.897,279.048 300.733,279.406 300.733 C 279.765 300.733,280.296 300.403,280.586 300.000 C 280.876 299.597,281.341 299.267,281.619 299.267 C 281.897 299.267,282.586 298.773,283.150 298.168 C 283.715 297.564,284.369 297.070,284.603 297.070 C 284.837 297.070,285.832 296.245,286.813 295.238 C 287.952 294.069,288.907 293.407,289.456 293.407 C 289.928 293.407,290.552 293.077,290.842 292.674 C 291.133 292.271,291.598 291.941,291.875 291.941 C 292.153 291.941,292.842 291.447,293.407 290.842 C 293.971 290.238,294.660 289.744,294.938 289.744 C 295.216 289.744,295.680 289.414,295.971 289.011 C 296.261 288.608,296.726 288.278,297.003 288.278 C 297.281 288.278,297.970 287.784,298.535 287.179 C 299.099 286.575,299.759 286.081,300.000 286.081 C 300.241 286.081,300.901 285.586,301.465 284.982 C 302.030 284.377,302.719 283.883,302.997 283.883 C 303.274 283.883,303.739 283.553,304.029 283.150 C 304.320 282.747,304.814 282.418,305.128 282.418 C 305.442 282.418,305.937 282.088,306.227 281.685 C 306.518 281.282,306.982 280.952,307.260 280.952 C 307.538 280.952,308.227 280.458,308.791 279.853 C 309.356 279.249,310.015 278.755,310.256 278.755 C 310.498 278.755,311.157 278.260,311.722 277.656 C 312.286 277.051,313.012 276.557,313.334 276.557 C 313.656 276.557,313.919 276.392,313.919 276.190 C 313.919 275.989,314.175 275.824,314.487 275.824 C 314.798 275.824,316.192 274.670,317.582 273.260 C 319.649 271.164,320.322 270.696,321.264 270.696 C 322.072 270.696,322.723 270.368,323.443 269.597 C 324.008 268.993,324.697 268.498,324.975 268.498 C 325.252 268.498,325.717 268.168,326.007 267.766 C 326.298 267.363,326.763 267.033,327.040 267.033 C 327.318 267.033,328.007 266.538,328.571 265.934 C 329.136 265.330,329.825 264.835,330.103 264.835 C 330.380 264.835,330.845 264.505,331.136 264.103 C 331.426 263.700,331.891 263.370,332.168 263.370 C 332.446 263.370,333.135 262.875,333.700 262.271 C 334.264 261.667,334.953 261.172,335.231 261.172 C 335.509 261.172,335.973 260.842,336.264 260.440 C 336.554 260.037,337.049 259.707,337.363 259.707 C 337.677 259.707,338.171 259.377,338.462 258.974 C 338.752 258.571,339.217 258.242,339.494 258.242 C 339.772 258.242,340.461 257.747,341.026 257.143 C 341.590 256.538,342.250 256.044,342.491 256.044 C 342.732 256.044,343.391 255.549,343.956 254.945 C 344.521 254.341,345.246 253.846,345.568 253.846 C 345.890 253.846,346.154 253.681,346.154 253.480 C 346.154 253.278,346.407 253.114,346.716 253.114 C 347.445 253.114,349.817 250.741,349.817 250.012 C 349.817 249.612,350.195 249.451,351.135 249.451 C 352.127 249.451,352.707 249.179,353.480 248.352 C 354.044 247.747,354.734 247.253,355.011 247.253 C 355.289 247.253,355.754 246.923,356.044 246.520 C 356.334 246.117,356.829 245.788,357.143 245.788 C 357.457 245.788,357.951 245.458,358.242 245.055 C 358.532 244.652,358.997 244.322,359.275 244.322 C 359.552 244.322,360.241 243.828,360.806 243.223 C 361.370 242.619,362.026 242.125,362.264 242.125 C 362.501 242.125,363.328 241.465,364.103 240.659 C 364.877 239.853,365.771 239.194,366.088 239.194 C 366.406 239.194,366.667 239.029,366.667 238.828 C 366.667 238.626,366.960 238.462,367.318 238.462 C 367.677 238.462,368.208 238.132,368.498 237.729 C 368.789 237.326,369.250 236.996,369.524 236.996 C 369.797 236.996,370.654 236.337,371.429 235.531 C 372.203 234.725,373.030 234.066,373.268 234.066 C 373.505 234.066,374.161 233.571,374.725 232.967 C 375.290 232.363,376.114 231.868,376.557 231.868 C 377.000 231.868,377.824 231.374,378.388 230.769 C 378.953 230.165,379.642 229.670,379.920 229.670 C 380.197 229.670,380.662 229.341,380.952 228.938 C 381.243 228.535,381.708 228.205,381.985 228.205 C 382.263 228.205,382.952 227.711,383.516 227.106 C 384.081 226.502,384.740 226.007,384.982 226.007 C 385.223 226.007,385.882 225.513,386.447 224.908 C 387.011 224.304,387.701 223.810,387.978 223.810 C 388.256 223.810,388.721 223.480,389.011 223.077 C 389.301 222.674,389.832 222.344,390.191 222.344 C 390.571 222.344,390.842 222.073,390.842 221.693 C 390.842 221.334,391.172 220.803,391.575 220.513 C 392.274 220.009,392.308 219.565,392.308 210.908 L 392.308 201.832 389.744 201.832 C 388.278 201.832,387.179 201.675,387.179 201.465 C 387.179 201.228,382.540 201.099,373.993 201.099 C 365.446 201.099,360.806 200.970,360.806 200.733 C 360.806 200.531,360.311 200.366,359.707 200.366 C 359.103 200.366,358.608 200.201,358.608 200.000 C 358.608 199.799,358.278 199.634,357.875 199.634 C 357.473 199.634,357.143 199.469,357.143 199.267 C 357.143 199.066,356.813 198.901,356.410 198.901 C 356.007 198.901,355.678 198.736,355.678 198.535 C 355.678 198.333,355.419 198.168,355.102 198.168 C 354.396 198.168,353.480 197.298,353.480 196.627 C 353.480 196.355,353.150 195.895,352.747 195.604 C 351.360 194.604,352.029 191.575,353.637 191.575 C 353.953 191.575,354.212 191.316,354.212 190.999 C 354.212 190.259,355.094 189.377,355.835 189.377 C 356.151 189.377,356.410 189.212,356.410 189.011 C 356.410 188.810,356.704 188.645,357.062 188.645 C 357.420 188.645,357.951 188.315,358.242 187.912 C 358.756 187.198,359.190 187.179,375.015 187.179 C 388.607 187.179,391.347 187.094,391.784 186.656 C 392.433 186.008,392.589 75.092,391.941 75.092 C 391.740 75.092,391.575 74.833,391.575 74.516 C 391.575 73.776,390.693 72.894,389.953 72.894 C 389.621 72.894,389.377 72.583,389.377 72.161 C 389.377 71.673,389.133 71.429,388.645 71.429 C 388.242 71.429,387.912 71.264,387.912 71.062 C 387.912 70.861,387.619 70.696,387.260 70.696 C 386.902 70.696,386.371 70.366,386.081 69.963 C 385.790 69.560,385.331 69.231,385.060 69.231 C 384.789 69.231,383.765 68.407,382.784 67.399 C 381.645 66.230,380.690 65.568,380.141 65.568 C 379.669 65.568,379.045 65.238,378.755 64.835 C 378.464 64.432,378.005 64.103,377.734 64.103 C 377.463 64.103,376.439 63.278,375.458 62.271 C 374.413 61.198,373.349 60.440,372.889 60.440 C 372.452 60.440,371.480 59.790,370.696 58.974 C 369.922 58.168,369.028 57.509,368.710 57.509 C 368.392 57.509,368.132 57.344,368.132 57.143 C 368.132 56.941,367.872 56.777,367.554 56.777 C 367.236 56.777,366.342 56.117,365.568 55.311 C 364.793 54.505,363.900 53.846,363.582 53.846 C 363.264 53.846,363.004 53.681,363.004 53.480 C 363.004 53.278,362.581 53.114,362.064 53.114 C 361.419 53.114,360.566 52.540,359.341 51.282 C 358.359 50.275,357.299 49.451,356.983 49.451 C 356.668 49.451,356.410 49.286,356.410 49.084 C 356.410 48.883,356.152 48.718,355.837 48.718 C 355.522 48.718,354.461 47.894,353.480 46.886 C 352.499 45.879,351.474 45.055,351.204 45.055 C 350.933 45.055,350.474 44.725,350.183 44.322 C 349.893 43.919,349.428 43.590,349.150 43.590 C 348.873 43.590,348.184 43.095,347.619 42.491 C 347.054 41.886,346.329 41.392,346.007 41.392 C 345.685 41.392,345.421 41.227,345.421 41.026 C 345.421 40.824,345.128 40.659,344.770 40.659 C 344.411 40.659,343.880 40.330,343.590 39.927 C 343.299 39.524,342.805 39.194,342.491 39.194 C 342.177 39.194,341.682 38.864,341.392 38.462 C 341.102 38.059,340.571 37.729,340.212 37.729 C 339.805 37.729,339.560 37.454,339.560 36.996 C 339.560 36.508,339.316 36.264,338.828 36.264 C 338.425 36.264,338.095 36.099,338.095 35.897 C 338.095 35.696,337.802 35.531,337.444 35.531 C 337.085 35.531,336.554 35.201,336.264 34.799 C 335.973 34.396,335.509 34.066,335.231 34.066 C 334.953 34.066,334.264 33.571,333.700 32.967 C 332.927 32.140,332.347 31.868,331.355 31.868 C 330.401 31.868,330.037 31.709,330.037 31.293 C 330.037 30.428,329.108 29.670,328.048 29.670 C 327.443 29.670,327.106 29.468,327.106 29.104 C 327.106 28.412,325.491 26.740,324.823 26.740 C 324.556 26.740,324.100 26.410,323.810 26.007 C 323.519 25.604,323.025 25.275,322.711 25.275 C 322.397 25.275,321.902 24.945,321.612 24.542 C 321.321 24.139,320.857 23.810,320.579 23.810 C 320.301 23.810,319.612 23.315,319.048 22.711 C 318.483 22.106,317.794 21.612,317.516 21.612 C 317.239 21.612,316.774 21.282,316.484 20.879 C 316.193 20.476,315.699 20.147,315.385 20.147 C 315.071 20.147,314.576 19.817,314.286 19.414 C 313.995 19.011,313.501 18.681,313.187 18.681 C 312.873 18.681,312.378 18.352,312.088 17.949 C 311.797 17.546,311.303 17.216,310.989 17.216 C 310.675 17.216,310.181 16.886,309.890 16.484 C 309.600 16.081,309.069 15.751,308.710 15.751 C 308.303 15.751,308.059 15.476,308.059 15.018 C 308.059 14.560,307.814 14.286,307.407 14.286 C 307.048 14.286,306.518 13.956,306.227 13.553 C 305.937 13.150,305.406 12.821,305.047 12.821 C 304.689 12.821,304.396 12.656,304.396 12.454 C 304.396 12.253,303.901 12.088,303.297 12.088 C 302.692 12.088,302.198 11.923,302.198 11.722 C 302.198 11.512,301.099 11.355,299.634 11.355 C 298.168 11.355,297.070 11.512,297.070 11.722 M332.234 187.546 C 332.234 187.747,332.528 187.912,332.886 187.912 C 333.245 187.912,333.776 188.242,334.066 188.645 C 334.356 189.048,334.817 189.377,335.089 189.377 C 335.697 189.377,336.630 190.270,336.630 190.853 C 336.630 191.088,337.125 191.743,337.729 192.308 C 339.014 193.509,339.105 194.144,338.095 194.872 C 337.692 195.162,337.363 195.616,337.363 195.881 C 337.363 196.505,334.967 198.901,334.342 198.901 C 334.078 198.901,333.624 199.231,333.333 199.634 C 332.966 200.144,332.385 200.366,331.421 200.366 C 330.660 200.366,330.037 200.531,330.037 200.733 C 330.037 200.970,325.153 201.099,316.117 201.099 C 307.082 201.099,302.198 200.970,302.198 200.733 C 302.198 200.531,301.703 200.366,301.099 200.366 C 300.495 200.366,300.000 200.201,300.000 200.000 C 300.000 199.799,299.670 199.634,299.267 199.634 C 298.864 199.634,298.535 199.469,298.535 199.267 C 298.535 199.066,298.117 198.901,297.607 198.901 C 296.575 198.901,294.139 196.723,294.139 195.800 C 294.139 195.491,293.974 195.238,293.773 195.238 C 293.571 195.238,293.407 194.579,293.407 193.773 C 293.407 192.967,293.571 192.308,293.773 192.308 C 293.974 192.308,294.139 192.053,294.139 191.742 C 294.139 190.883,295.827 189.377,296.789 189.377 C 297.257 189.377,297.878 189.048,298.168 188.645 C 298.459 188.242,298.990 187.912,299.348 187.912 C 299.707 187.912,300.000 187.747,300.000 187.546 C 300.000 187.307,305.617 187.179,316.117 187.179 C 326.618 187.179,332.234 187.307,332.234 187.546 "></path></g></svg>