<?xml version="1.0" encoding="utf-8"?>
<!-- Generator: Adobe Illustrator 23.1.0, SVG Export Plug-In . SVG Version: 6.00 Build 0)  -->
<svg version="1.1" id="Layer_1" xmlns="http://www.w3.org/2000/svg" xmlns:xlink="http://www.w3.org/1999/xlink" x="0px" y="0px"
	 width="500px" height="381.2px" viewBox="0 0 500 381.2" style="enable-background:new 0 0 500 381.2;" xml:space="preserve">
<style type="text/css">
	.st0{fill:#F5FBFF;}
	.st1{fill:#C4EDFF;}
	.st2{fill:#E8F7FF;}
</style>
<g>
	
		<image style="overflow:visible;opacity:0.3;enable-background:new    ;" width="2092" height="1592" xlink:href="8EEB3F99.png"  transform="matrix(0.2395 0 0 0.2395 6.36 3.0288)">
	</image>
	<g>
		<g>
			<path class="st0" d="M444.5,173.5c-9.2-2.2-18.4-1.3-26.7,2.1c-2.1-20.4-14.3-38.1-31.6-44.8c0.4-1.7,0.8-3.5,1.2-5.3
				c5.9-33.7-12.9-66.5-42-73.4c-12.4-2.9-24.7-0.6-35.1,5.6c-5-22.3-20.5-40.6-41.4-45.5c-29.1-6.8-57.5,14.9-63.4,48.6
				c-1,5.6-1.3,11.1-1,16.5c-1.8-0.6-3.5-1.1-5.4-1.6c-25.3-6-50.2,7.3-63.3,31c-2.3-0.9-4.6-1.7-7-2.3
				c-29.1-6.8-57.5,14.9-63.4,48.6c-1.9,10.9-1.2,21.6,1.5,31.5c-8.5,4.6-15.2,13.3-17.9,24.4c-1.7-0.9-3.5-1.7-5.4-2.1
				c-13.1-3.1-25.9,6.7-28.6,21.9c-2.7,15.2,5.8,30,18.9,33.1c5.3,1.2,10.5,0.4,15.1-2.1c1.4,21.7,15,40.6,34.4,45.1
				c10.3,2.4,20.4,0.4,29-5c3.4,13.3,12.8,24.1,25.4,27.1c9.3,2.2,18.5-0.4,25.7-6.2c3.5,18.7,16.2,34.3,33.5,38.3
				c16.6,3.9,32.8-3.8,42.5-18.2c4.9,6.9,11.7,11.9,19.8,13.8c16.8,3.9,33.2-7,39-24.9c3.2,1.5,6.6,2.7,10.2,3.5
				c21.5,5.1,42.6-3.7,56.6-21c6,6.2,13.4,10.7,21.8,12.7c23.4,5.5,46.2-10.2,53.6-35.7c21.1-3,39.1-21.2,43.5-46.6
				C489.7,210.9,472,179.9,444.5,173.5z"/>
			<path class="st1" d="M440.9,248.4c-7.4,25.5-30.2,41.2-53.6,35.7c-8.4-2-15.9-6.5-21.8-12.7c-13.9,17.3-35.1,26-56.6,21
				c-3.5-0.8-6.9-2-10.2-3.5c-5.9,17.9-22.3,28.8-39,24.9c-8.1-1.9-14.9-7-19.8-13.8c-9.7,14.4-26,22.1-42.5,18.2
				c-17.3-4.1-30-19.6-33.5-38.3c-7.2,5.8-16.4,8.3-25.7,6.2c-12.6-3-22-13.7-25.4-27.1c-8.6,5.3-18.7,7.4-29,5
				c-19.3-4.5-32.9-23.4-34.4-45.1c-4.5,2.5-9.8,3.3-15.1,2.1c-4-1-7.6-3-10.6-5.9c-4.1,3.9-7.2,9.5-8.3,16
				c-2.7,15.2,5.8,30,18.9,33.1c5.3,1.2,10.5,0.4,15.1-2.1c1.4,21.7,15,40.6,34.4,45.1c10.3,2.4,20.4,0.4,29-5
				c3.4,13.3,12.8,24.1,25.4,27.1c9.3,2.2,18.5-0.4,25.7-6.2c3.5,18.7,16.2,34.3,33.5,38.3c16.6,3.9,32.8-3.8,42.5-18.2
				c4.9,6.9,11.7,11.9,19.8,13.8c16.8,3.9,33.2-7,39-24.9c3.2,1.5,6.6,2.7,10.2,3.5c21.5,5.1,42.6-3.7,56.6-21
				c6,6.2,13.4,10.7,21.8,12.7c23.4,5.5,46.2-10.2,53.6-35.7c21.1-3,39.1-21.2,43.5-46.6c2-11.6,0.9-23.1-2.6-33.3
				C475,231.8,459.1,245.8,440.9,248.4z"/>
			<path class="st1" d="M365.5,271.2c-23,0-27.9-13.2-27.9-22.7c-1.3,2.7-2,5.6-2,8.6c0,13.3,13.4,24,30,24c16.6,0,30-10.8,30-24
				c0-3-0.7-6-2-8.6C393.4,258.9,389,271.2,365.5,271.2z"/>
			<path class="st1" d="M114.7,257.2c-20.8-11.3-20.4-25.7-17-34.3c-2.2,1.8-3.9,4.1-5,6.8c-4.9,12,3.3,28.3,18.3,36.5
				c15,8.1,31.1,5,35.9-7c1.1-2.8,1.5-5.8,1.3-8.8C144.6,259.8,136.1,268.8,114.7,257.2z"/>
			<g>
				<path class="st2" d="M345.7,52.1c-12.4-2.9-24.7-0.6-35.1,5.6c-5-22.3-20.5-40.6-41.4-45.5c-29.1-6.8-57.5,14.9-63.4,48.6
					c-1,5.6-1.3,11.1-1,16.5c-1.8-0.6-3.5-1.1-5.4-1.6c-25.3-6-50.2,7.3-63.3,31c-2.3-0.9-4.6-1.7-7-2.3
					C100,97.6,71.7,119.4,65.8,153c-1.3,7.5-1.4,15-0.4,22.2c0.1-0.9,0.2-1.7,0.4-2.6c5.9-33.7,34.3-55.4,63.4-48.6
					c2.4,0.6,4.8,1.3,7,2.3c12.1-21.8,34-34.7,57.1-32.1c0.6,0.2,1.2,0.4,1.7,0.6c23,9.4,36,37,31.1,63.9c0.9-2.2,1.8-4.4,2.5-6.7
					c8.1-26.5-2.3-55.3-23.3-67.8c0.2-1.3,0.3-2.5,0.6-3.8c5.9-33.7,34.3-55.4,63.4-48.6c20.8,4.9,36.4,23.1,41.4,45.5
					c10.5-6.2,22.7-8.5,35.1-5.6c22.6,5.3,38.9,26.3,42.3,51.1C392.5,90,374,58.7,345.7,52.1z"/>
				<path class="st2" d="M444.8,173.5c-9.2-2.2-18.4-1.3-26.7,2.1c-2.1-19.5-13.3-36.5-29.4-43.8c0.1,4.4-0.3,8.8-1.1,13.3
					c-0.3,1.8-0.7,3.6-1.2,5.3c17.3,6.7,29.5,24.4,31.6,44.8c8.3-3.3,17.5-4.2,26.7-2.1c21.1,5,36.4,24.5,39.9,47.7
					C489.2,209.7,471.7,179.8,444.8,173.5z"/>
				<path class="st2" d="M49.4,208.9c-1.7-0.9-3.5-1.7-5.4-2.1c-13.1-3.1-25.9,6.7-28.6,21.9c-0.9,5.3-0.5,10.6,1.1,15.4
					c4.1-12.7,15.7-20.5,27.5-17.7c1.9,0.5,3.7,1.2,5.4,2.1c2.7-11.1,9.4-19.8,17.9-24.4c-1.6-5.7-2.5-11.8-2.6-18
					C57.4,191,51.8,199,49.4,208.9z"/>
			</g>
		</g>
	</g>
</g>
</svg>
